<svg width="34" height="34" viewBox="0 0 34 34" fill="none" xmlns="http://www.w3.org/2000/svg">
    <path fill-rule="evenodd" clip-rule="evenodd"
        d="M33.7192 20.4985V27.3376C33.7192 30.859 30.8618 33.7164 27.3404 33.7164L20.5012 33.7164C20.4574 33.6075 20.3938 33.51 20.3103 33.4237L18.7554 31.8688C17.9514 31.0648 17.489 29.9532 17.4911 28.8183V19.9088C17.4716 19.1126 17.1466 18.3545 16.5835 17.7914C16.0203 17.2283 15.2622 16.9033 14.4661 16.8838L5.5226 16.888C4.38557 16.888 3.27612 16.4277 2.47002 15.6216L0.55871 13.7103C0.478842 13.633 0.385342 13.5711 0.28294 13.5278L0.28294 6.66324C0.285062 3.13973 3.14248 0.282313 6.66387 0.282313L13.5306 0.280191C13.5751 0.382927 13.6384 0.476451 13.7173 0.555963L15.6265 2.46515C16.4335 3.27732 16.8878 4.37491 16.8908 5.51985L16.8886 14.4655C16.8876 14.8627 16.9651 15.2563 17.1166 15.6235C17.2682 15.9907 17.4908 16.3244 17.7717 16.6053C18.0526 16.8862 18.3863 17.1088 18.7535 17.2604C19.1207 17.4119 19.5143 17.4894 19.9115 17.4883L28.8211 17.4883C29.956 17.4862 31.0697 17.9465 31.8736 18.7505L33.4286 20.3055C33.5119 20.3881 33.6107 20.4537 33.7192 20.4985ZM16.1014 31.1794C16.4115 31.9279 16.8665 32.6077 17.4402 33.1798L17.9769 33.7165L6.65969 33.7186C3.1383 33.7186 0.280877 30.8612 0.280877 27.3398V16.0544L1.1591 16.9326C1.7302 17.5077 2.40983 17.9635 3.15853 18.2738C3.90723 18.5841 4.7101 18.7425 5.52054 18.74H14.464C14.7715 18.7479 15.0643 18.8736 15.2818 19.0911C15.4993 19.3086 15.625 19.6013 15.6329 19.9088L15.6329 28.8184C15.632 29.6286 15.7912 30.431 16.1014 31.1794ZM18.7406 5.51992C18.7406 3.87378 18.1 2.32522 16.9332 1.15849L16.0529 0.282384H27.3383C29.0299 0.282965 30.652 0.955202 31.8482 2.15134C33.0443 3.34747 33.7165 4.96961 33.7171 6.6612V17.9763L33.1804 17.4396C32.6094 16.8652 31.9301 16.4099 31.1817 16.1C30.4334 15.7901 29.6311 15.6319 28.8211 15.6344L19.9116 15.6344C19.7578 15.6345 19.6054 15.6043 19.4633 15.5455C19.3212 15.4867 19.1921 15.4005 19.0833 15.2917C18.9745 15.1829 18.8883 15.0538 18.8295 14.9117C18.7707 14.7695 18.7405 14.6172 18.7406 14.4634L18.7406 5.51992Z"
        fill="#030303" />
</svg>